<?xml version="1.0" encoding="utf-8"?>
<!-- Generator: Adobe Illustrator 21.1.0, SVG Export Plug-In . SVG Version: 6.00 Build 0)  -->
<svg version="1.1" id="Calque_1" xmlns="http://www.w3.org/2000/svg" xmlns:xlink="http://www.w3.org/1999/xlink" x="0px" y="0px"
	 viewBox="0 0 432 432" style="enable-background:new 0 0 432 432;" xml:space="preserve">
<style type="text/css">
	.st0{fill:#905269;}
	.st1{fill:#5B473E;}
	.st2{fill:#EE8081;}
	.st3{fill:#455063;}
	.st4{fill:#A5998D;}
	.st5{fill:#B94E46;}
	.st6{fill:#8D7867;}
	.st7{fill:#E4C08C;}
	.st8{fill:#BEC1A4;}
	.st9{fill:#B3AEA8;}
	.st10{fill:#F39DA0;}
	.st11{fill:#1A1A1A;}
	.st12{fill:#F7C7C5;}
	.st13{fill:#997BA1;}
	.st14{fill:#658367;}
	.st15{fill:#EA7563;}
	.st16{fill:#3BBACB;}
	.st17{fill:#F98600;}
	.st18{fill:#F5CD00;}
	.st19{fill:#CCCCCC;}
	.st20{fill:#449BC4;}
	.st21{fill:#C69C6D;}
	.st22{fill:#B7C8A4;}
	.st23{fill:#333333;}
	.st24{fill:#B6DB00;}
	.st25{fill:#C10810;}
	.st26{fill:#B98D4D;}
	.st27{fill:#D6A8B2;}
	.st28{fill:#F3532F;}
	.st29{fill:#0071BC;}
	.st30{fill:#006837;}
	.st31{fill:#F1E06C;}
	.st32{fill:#FFB07F;}
	.st33{fill:#B26E6E;}
	.st34{fill:#89A57D;}
	.st35{fill:#E4B1B1;}
	.st36{fill:#A35061;}
	.st37{fill:#677763;}
	.st38{fill:#DFAFB4;}
	.st39{fill:#6D2E2E;}
	.st40{fill:#D79191;}
	.st41{fill:#A51A1A;}
	.st42{fill:#E16F6F;}
	.st43{fill:#ECA3A3;}
	.st44{fill:#A99FC8;}
	.st45{fill:#F4CDA1;}
	.st46{fill:#F28460;}
	.st47{fill:#666666;}
	.st48{fill:#FE6467;}
	.st49{fill:#FBB03B;}
	.st50{fill:#5E417B;}
	.st51{fill:#8EA73D;}
	.st52{fill:#A677B5;}
	.st53{fill:#D397D5;}
	.st54{fill:#8FBA72;}
	.st55{fill:#525541;}
	.st56{fill:#FEB8BD;}
	.st57{fill:#B86B8B;}
	.st58{fill:#4EA8D0;}
	.st59{fill:#A7343B;}
	.st60{fill:#F3A61D;}
	.st61{fill:#BD607F;}
	.st62{fill:#678A6C;}
	.st63{fill:#5B2642;}
	.st64{fill:#A5A184;}
	.st65{fill:#BF8F56;}
	.st66{fill:#2C2B27;}
	.st67{fill:#3C3C3B;}
	.st68{fill:#E7AE61;}
	.st69{fill:#A3897A;}
	.st70{fill:#F1B4B4;}
	.st71{fill:#DEE1DA;}
	.st72{fill:#8BAA67;}
	.st73{fill:#634E42;}
	.st74{fill:#EF810D;}
	.st75{fill:#493D38;}
	.st76{fill:#DEBA88;}
	.st77{fill:#697279;}
	.st78{fill:#5A6054;}
	.st79{fill:#E6421C;}
	.st80{fill:#DCBA6E;}
	.st81{fill:#EB608A;}
	.st82{fill:#D8BFAC;}
	.st83{fill:#507B64;}
	.st84{fill:#7A6A58;}
	.st85{fill:#BD1622;}
	.st86{fill:#B18EAC;}
	.st87{fill:#82A091;}
	.st88{fill:#422813;}
	.st89{fill:#B17F49;}
	.st90{fill:#E68A9C;}
	.st91{fill:#1D1D1B;}
	.st92{fill:#E7A460;}
	.st93{fill:#6A7C5D;}
	.st94{fill:#B23032;}
	.st95{fill:#5E7C4A;}
	.st96{fill:#65052B;}
	.st97{fill:#C42A52;}
	.st98{fill:#390200;}
	.st99{fill:#A1A395;}
	.st100{fill:#ADA667;}
	.st101{fill:#886766;}
	.st102{fill:#96977D;}
	.st103{fill:#607254;}
	.st104{fill:#925673;}
	.st105{fill:#D86E63;}
	.st106{fill:#A2BC70;}
	.st107{fill:#E37A17;}
	.st108{fill:#778A15;}
	.st109{fill:#BE013B;}
	.st110{fill:#CAACC4;}
	.st111{fill:#874D80;}
	.st112{fill:#E7E2DE;}
	.st113{fill:#748565;}
	.st114{fill:#736357;}
	.st115{fill:#8E9091;}
	.st116{fill:#6A665F;}
	.st117{fill:#576B4A;}
	.st118{fill:#606060;}
	.st119{fill:#EBBFC0;}
	.st120{fill:#B297CA;}
	.st121{fill:#DCC6D6;}
	.st122{fill:#420909;}
	.st123{fill:#E2A759;}
	.st124{fill:#DD7576;}
	.st125{fill:#B23838;}
	.st126{fill:#CC9A6D;}
	.st127{fill:#7F454F;}
</style>
<g>
	<g>
		<path class="st113" d="M104.9,259.3c0.2-0.4,0.3-0.8,0.5-1.1c1.2-2.8,2.3-5.7,3.7-8.4c0.8-1.7,1.9-3.3,3-4.8
			c2.1-2.8,4.8-4.6,8.3-5.2c3.8-0.7,7.3,1,9.3,4.3c1.4,2.4,2,4.9,2.3,7.6c0.3,3.4,0.1,6.8-0.3,10.1c-1.2,9.3-3.4,18.4-5.5,27.5
			c-2.1,9-4.2,18-6.2,27c-0.7,3.1-1.3,6.3-1.4,9.5c0,0.8,0.1,1.6,0.2,2.4c0.1,0.5,0.4,1,1.1,1.3c0.5-0.5,1.1-0.9,1.5-1.5
			c1-1.4,2-2.8,2.8-4.3c2.2-4.3,4.2-8.7,6.3-13.1c0.3-0.5,0.3-1,0.2-1.6c-1.2-8.2-0.7-16.3,1.9-24.2c0.9-2.8,2.2-5.3,4-7.6
			c2.2-2.8,5.1-4.5,8.6-4.9c3.7-0.4,7,0.9,9.6,3.5c1.2,1.1,2.1,2.5,3.1,3.8c0.2,0.3,0.4,0.7,0.7,1.1c0.1-0.3,0.3-0.5,0.4-0.6
			c0.3-0.6,0.6-1.3,1-1.9c1.2-1.8,2.9-2.5,4.8-2c2,0.5,3.4,2.2,3.6,4.3c0.2,2-0.2,3.9-0.6,5.8c-0.9,4.5-1.9,8.9-2.7,13.4
			c-1,5.8-1.7,11.7-1.4,17.6c0.1,1.6,0.3,3.1,0.8,4.6c0.5,1.6,1.6,2.7,3.1,3.3c1.7,0.7,3.3,0.6,4.5-0.8c0.9-0.9,1.6-2,2.2-3.1
			c1.7-3.1,2.7-6.5,3.3-10c1.4-8.6,1.5-17.2,1-25.9c-0.3-4.4-1.1-8.8-2-13.1c-0.6-2.9-1.1-5.8-2.3-8.6c-0.2-0.4-0.3-0.8-0.5-1.2
			c0-0.1-0.1-0.2-0.2-0.3c-0.2,0.1-0.5,0.2-0.7,0.3c-0.6,0.3-1.3,0.6-1.9,0.9c-4.3,2.1-8.8,2.8-13.5,2.2c-3.6-0.4-6.8-1.7-9.5-4.2
			c-2.7-2.5-4.2-5.6-4-9.4c0.2-5.1,4.4-9.8,9.4-10.6c3.4-0.6,6.6,0.3,9.6,1.8c3.7,1.9,6.8,4.6,9.3,7.9c1.1,1.4,2.1,2.9,3.2,4.4
			c0.2,0,0.5-0.1,0.7-0.1c3.6-0.9,7.2-1.8,10.9-2.1c3.7-0.3,7.4-0.2,11,0.9c5.2,1.7,8,5.3,8.6,10.6c0.4,3.3,0,6.5-0.6,9.7
			c-1,6.1-2.7,12.1-4.2,18.1c-2.1,8.5-4.1,17-5.4,25.6c-0.6,4-1.1,8-1.2,12.1c-0.1,2.3,0.1,4.5,0.9,6.6c0.2,0.5,0.4,1.1,0.7,1.5
			c0.9,1.4,2.5,1.8,3.8,0.7c1-0.9,1.9-1.8,2.7-2.8c2.1-2.6,3.8-5.6,5.1-8.6c2.2-4.8,4.2-9.7,6.2-14.5c0.6-1.4,1.2-2.8,1.7-4.2
			c0.2-0.4,0.2-0.9,0.2-1.3c-1.2-6.7-2.1-13.4-2.6-20.2c-0.6-7.7-1-15.5-0.5-23.3c0.3-4.3,0.6-8.7,0.9-13c0-0.7,0.2-1.4,0.2-2.2
			c-1.2-0.1-2.4-0.2-3.5-0.4c-2.7-0.6-5.5-1.2-8.2-1.9c-3.6-0.9-7.1-2-10.8-2.6c-2.9-0.4-5.8-0.7-8.7-1c-2.6-0.2-5.2,0.4-7.7,0.9
			c-0.9,0.2-1.8,0.3-2.6,0.3c-2,0-2.9-1.6-1.9-3.3c0.4-0.7,0.9-1.3,1.5-1.8c1.5-1.3,3.4-1.8,5.3-2.2c3-0.6,6-0.3,9,0.1
			c4,0.5,7.8,1.8,11.6,3.2c2.9,1.1,5.7,2.3,8.7,3c2.4,0.5,4.8,0.9,7.2,1.3c0.3,0,0.6,0,0.9,0c0.2-0.9,0.4-1.7,0.7-2.6
			c0.8-3,1.9-5.8,3.5-8.5c1.1-2,2.5-3.7,4.3-5.1c3-2.3,6.4-3.1,10.2-2.2c5,1.3,7.7,6,6.3,11c-0.8,3-2.6,5.3-5.1,7.1
			c-2.9,2-6.1,3.2-9.5,4c-0.4,0.1-0.9,0.2-1.5,0.3c-0.2,1.2-0.5,2.4-0.7,3.7c-0.6,4.2-0.8,8.4-0.8,12.7c-0.1,4.1,0,8.1,0,12.2
			c0,0.2,0,0.4,0,0.8c0.4-0.2,0.6-0.4,0.8-0.6c4.5-3.7,8.8-7.6,12.5-12.1c1.2-1.4,2.3-2.8,3.3-4.3c1.8-2.5,3.3-5.2,4.4-8
			c0.4-1,0.9-2,1.6-2.9c1.3-1.8,3.4-1.8,4.7,0.1c0.7,1,0.9,2.2,0.8,3.4c-0.1,1.4-0.5,2.8-1.1,4.1c-1.1,2.6-2.5,4.9-4.1,7.2
			c-4.7,6.8-10.4,12.5-16.8,17.7c-0.1,0.1-0.3,0.2-0.6,0.3c0.4,0.2,0.5,0.3,0.7,0.3c3,0.8,5.4,2.5,7.6,4.6c3.5,3.4,6,7.5,7.8,12
			c1,2.6,2,5.2,2.9,7.8c1.8,5.4,4.2,10.5,6.6,15.6c0.1,0.2,0.2,0.4,0.3,0.6c0.4-0.2,0.7-0.4,1-0.6c1.8-1,3.5-2.3,5.4-3.1
			c6.4-2.8,12.8-1.2,17.9,3.5c2.9,2.7,4.7,6,5,10c0.3,4.5-1.1,8.5-4.4,11.7c-2.1,2.1-4.7,3.3-7.7,3.7c-1.6,0.2-3.1,0-4.6-0.5
			c-4.6-1.5-8.6-3.9-12.1-7.2c-1.6-1.5-2.9-3.2-4.4-4.8c-0.2-0.3-0.4-0.5-0.7-0.9c-0.3,0.3-0.6,0.5-0.9,0.8
			c-7.4,6.3-15.2,12.1-23.7,17c-9.6,5.6-19.9,9.6-30.9,11.9c-6.4,1.3-12.8,1.9-19.3,1.4c-5.9-0.4-11.6-1.8-16.9-4.7
			c-1.3-0.7-2.5-1.5-3.7-2.4c-6.2-5-10.5-11.1-12.6-18.8c-0.3-1-0.5-1.9-0.2-2.9c0.6-2.7,3.7-3.7,5.8-1.8c0.7,0.7,1.2,1.5,1.5,2.4
			c0.4,1.2,0.8,2.4,1.2,3.5c1.8,4.8,5,8.6,8.9,11.8c2.8,2.3,6.2,3.5,9.6,4.4c4.7,1.2,9.5,1.4,14.3,1.2c7.9-0.4,15.5-2.3,23-5
			c9.4-3.4,18-8.3,26.1-14.2c3.6-2.6,7.2-5.4,10.8-8c1-0.7,1.9-1.4,3-2.2c0-0.1-0.1-0.3-0.1-0.4c-4.4-7.4-7.8-15.3-10.8-23.5
			c-1-2.9-2.1-5.7-3.3-8.6c-1.1-2.8-2.6-5.2-4.7-7.3c-0.9-0.9-1.9-1.4-3.3-1.5c0.2,1.2,0.3,2.3,0.5,3.4c0.7,5,1.4,10,2.1,15
			c0.4,3.2,1,6.4,1.4,9.6c0.2,2,0.3,4.1,0.3,6.2c0,0.9-0.3,1.8-0.6,2.6c-0.8,1.8-2.9,2.4-4.6,1.2c-0.9-0.6-1.6-1.4-2-2.4
			c-0.5-1.1-0.9-2.3-1.3-3.5c-0.3-0.8-0.4-1.7-0.6-2.5c-0.2-0.8-0.3-1.6-0.6-2.7c-0.3,0.5-0.4,0.9-0.6,1.2c-1.4,3.3-2.6,6.6-4.1,9.9
			c-2,4.4-4.3,8.6-7.2,12.5c-1.2,1.6-2.6,3-4.2,4.3c-2.2,1.7-4.6,2.2-7.3,1.5c-1.6-0.4-2.8-1.4-3.9-2.7c-1.3-1.5-2-3.3-2.6-5.1
			c-1.1-3.2-1.6-6.5-1.9-9.8c-0.5-6.5,0-13,0.7-19.5c1.2-10.6,3.7-20.9,6.4-31.2c0.7-2.7,1.3-5.4,1.9-8.1c0.7-2.9,0.2-5.7-0.8-8.5
			c-0.5-1.4-1.6-2.2-3-2.6c-1.7-0.4-3.5-0.3-5.2,0c-2.7,0.5-5.4,1.4-8,2.4c-0.2,0.1-0.3,0.2-0.5,0.3c0.5,1.3,0.9,2.7,1.4,4
			c2.2,6.4,3.6,13,4.1,19.7c0.4,4.9,0.6,9.8,0.3,14.7c-0.4,7.6-1.6,15-4.2,22.2c-0.9,2.3-1.9,4.5-3.4,6.5c-1.5,2-3.4,3.6-5.9,4.2
			c-3.5,0.9-6.7-0.1-9.6-2.1c-1.6-1.1-2.7-2.7-3.5-4.5c-1.1-2.5-1.7-5-2.2-7.7c-0.1-0.9-0.3-1.8-0.4-3c-0.3,0.5-0.5,0.8-0.7,1.1
			c-1.1,1.6-2.1,3.2-3.2,4.6c-1.7,2.1-3.9,3.4-6.5,4c-2.8,0.7-5.3-0.1-7.4-2c-1.5-1.4-2.5-3.2-3.3-5c-0.4-0.9-0.7-1.8-1.1-2.9
			c-0.2,0.6-0.4,0.9-0.6,1.3c-1.6,4.1-3.3,8.1-5.4,11.9c-0.7,1.3-1.5,2.5-2.4,3.7c-0.5,0.7-1.2,1.4-1.9,2c-2.1,1.8-4.5,1.8-6.6,0.1
			c-1.9-1.5-3.2-3.5-3.8-5.9c-0.5-1.7-0.5-3.5-0.5-5.3c0-3,0.4-6,0.8-9c1.5-9.6,3.6-19.1,5.5-28.6c1.4-7,2.7-14.1,3.9-21.2
			c0.5-3.1,0.8-6.2,0.7-9.4c0-1.6-0.2-3.3-0.8-4.8c-0.3-0.7-0.7-1.4-1.1-2.1c-0.5-0.7-0.9-0.8-1.7-0.5c-0.6,0.3-1.2,0.7-1.8,1.2
			c-1.3,1.2-2.3,2.6-3.2,4.1c-2,3.3-3.4,6.7-4.6,10.3c-2,5.7-3.2,11.7-4.5,17.6c-1,4.7-1.9,9.4-2.8,14c-0.1,0.6-0.3,1.2-0.5,1.7
			c-1,2.6-4.1,3.2-6.1,1.3c-0.9-0.9-1.4-2-1.6-3.2c-0.3-2.1-0.5-4.3-0.5-6.4c0-4.9,0.1-9.8,0.2-14.7c0.3-7.2,0.7-14.4,1-21.6
			c0.1-2.7,0-5.4-0.5-8c-0.2-1-0.6-2-1-2.9c-0.5-0.9-0.9-1-1.8-0.5c-1.2,0.7-2.1,1.8-2.9,2.9c-1.7,2.5-2.8,5.2-3.8,8
			c-1.5,4.3-2.5,8.8-3.4,13.3c-0.8,4-1.7,8-2.6,12c-0.2,0.7-0.4,1.4-0.8,2.1c-1,1.9-3.1,2.5-4.9,1.4c-0.6-0.4-1.2-0.9-1.7-1.5
			c-1.2-1.4-1.8-3.2-2.3-5c-0.6-2.5-0.9-5.1-1-7.6c-0.4-6.3-0.8-12.7-0.7-19c0.1-3,0.2-6.1,0.9-9c0.2-1,0.6-2,1.1-2.9
			c1-1.8,2.7-2.1,4.3-0.8c0.9,0.7,1.4,1.7,1.6,2.8c0.4,1.7,0.5,3.4,0.5,5.1c0.1,6.1,0.2,12.1,0.4,18.2c0.1,2.4,0.3,4.7,0.6,7.1
			c0.1-0.7,0.3-1.4,0.4-2.2c1.2-6.6,2.7-13.2,4.9-19.6c0.7-2,1.6-4,2.5-5.9c1.5-2.9,3.6-5.2,6.6-6.6c3.8-1.8,7.5-0.9,10.1,2.3
			c1.2,1.5,2,3.2,2.5,5c1,3.3,1.5,6.8,1.7,10.2c0.2,2.8,0.2,5.7,0.4,8.5c0,0.2,0.1,0.5,0.1,0.7C104.8,259.3,104.8,259.3,104.9,259.3
			z M145.1,317.9c1.3,0,2.3-0.6,3.1-1.4c2.1-1.9,3.6-4.2,5-6.6c0.3-0.5,0.4-1.1,0.4-1.7c0.1-2.8,0.3-5.7,0.5-8.5
			c0.4-4.5,1.3-8.9,2.6-13.3c0.1-0.3,0.1-0.7,0-1c-0.5-1.7-1.3-3.1-2.6-4.3c-2.7-2.5-5.4-2.3-7.7,0.4c-0.8,0.9-1.3,2-1.8,3.1
			c-1,2.1-1.5,4.4-1.9,6.7c-0.6,3.8-1.1,7.5-1.5,11.3c-0.3,3.2-0.5,6.3-0.3,9.5c0.1,1.4,0.4,2.7,1,4
			C142.7,317.3,143.7,317.9,145.1,317.9z M256.5,329.2c0.4,0.6,0.8,1.1,1.1,1.6c1.6,2.2,3.5,4.2,5.5,6.1c2.7,2.6,5.9,3.8,9.5,4.2
			c1.8,0.2,4.4-1,5.2-3.3c0.9-2.7,0.8-5.3-0.5-7.9c-2.3-4.7-6.8-6.8-11.4-6.1C262.1,324.3,259.2,326.6,256.5,329.2z M169.9,256.6
			c-1.1-1.7-3.5-4.3-5.4-5.6c-1.1-0.8-2.3-1.4-3.5-2c-1.8-0.9-3.7-0.6-5.4,0.3c-2.5,1.3-2.6,4.1-0.2,5.6c0.8,0.5,1.6,0.9,2.5,1.1
			c3.3,0.9,6.6,1.1,9.9,0.8C168.5,256.8,169.1,256.7,169.9,256.6z M224.9,244.7c2.8-0.4,6.6-2,8.4-3.7c0.6-0.5,1.1-1.1,1.5-1.8
			c0.9-1.4,1.4-2.9,1.2-4.5c-0.1-0.9-0.5-1.6-1.2-2.2c-0.6-0.5-1.3-0.7-2-0.2c-0.8,0.5-1.6,1-2.2,1.7
			C227.7,236.9,226.2,240.7,224.9,244.7z"/>
		<path class="st113" d="M297.4,291.6c-0.5,0.7-1,1.5-1.4,2.2c-3.2,5-6.5,10-10.4,14.5c-2.4,2.7-5.1,5.1-8.3,6.7
			c-2.3,1.1-4.8,1.8-7.4,1.3c-3.7-0.7-6.8-2.4-9.5-5c-2.1-2.1-3.6-4.5-4.7-7.2c-1.5-3.7-2.4-7.7-2.9-11.7c-0.5-4.1-0.5-8.2,0.2-12.2
			c0.8-4.9,2.5-9.3,5.8-13.1c2-2.3,4.5-3.8,7.6-4.3c1.6-0.3,3.3-0.1,4.9,0.3c4.9,1.4,8.3,4.3,9.6,9.3c0.7,2.6,0.2,5.1-0.8,7.5
			c-1.7,4.2-4.5,7.3-8.8,9c-2,0.8-3.9,1.4-6,1.7c-0.3,0-0.5,0.1-0.9,0.2c0.3,2.3,0.8,4.5,1.6,6.6c0.7,2,1.6,4,2.7,5.8
			c1.6,2.6,4,4,7,4.4c1.1,0.1,2.1,0,3.1-0.5c2.2-0.9,4-2.2,5.5-4c1.6-1.8,3.1-3.6,4.6-5.5c2.8-3.6,5.4-7.3,8.1-11
			c0.3-0.4,0.4-0.8,0.4-1.3c-0.3-5.6-0.3-11.1,0.2-16.7c0.4-4,0.8-8.1,1.3-12.1c0-0.3,0-0.6,0.1-0.9c-0.1-0.1-0.2-0.2-0.4-0.2
			c-5.3-1.9-10.6-3.7-16-4.8c-3.8-0.8-7.7-1.1-11.6-0.6c-2.7,0.4-5.3,1.2-7.7,2.4c-0.7,0.4-1.4,0.8-2.2,1.1
			c-0.4,0.2-0.8,0.3-1.2,0.4c-1.2,0.2-2.2-0.8-1.8-2c0.2-0.7,0.6-1.4,1.1-1.9c1.4-1.8,3.2-3.1,5.2-4.2c2.8-1.5,5.9-2.3,9.1-2.6
			c6.7-0.6,13.1,0.5,19.5,2.5c2,0.6,4.1,1.3,6.1,2c0.3,0.1,0.7,0.2,1.1,0.3c0.1-1,0.3-1.9,0.4-2.8c0.5-3.7,1.1-7.3,2.2-10.9
			c0.4-1.3,0.9-2.5,1.5-3.6c0.5-1,1.4-1.7,2.5-2c1.3-0.4,2.5-0.1,3.5,0.7c1.8,1.2,2.5,3,2.9,5c0.4,2.2,0.3,4.5,0.1,6.7
			c-0.3,3.2-0.6,6.5-0.9,9.7c0,0.3,0,0.6,0,1.1c0.4,0.1,0.8,0.2,1.2,0.3c5,1.3,10.1,2.5,15.3,3.1c4.6,0.5,9.2,0.7,13.8-0.1
			c7.5-1.3,12.9-5.7,16.7-12.2c0.3-0.6,0.6-1.2,0.8-1.9c0.7-2,0.1-3.7-1.3-5.1c-2.2-2.2-6-2.8-8.8-1.3c-0.5,0.2-1,0.5-1.5,0.6
			c-1.3,0.4-2.6-0.1-3.4-1.2c-0.8-1.1-0.8-2.5,0-3.6c0.3-0.4,0.6-0.7,1-1c7.7-5.9,17.5-1.2,19.8,5.4c1,3,1,6,0.3,9.1
			c-0.7,3.1-2.2,5.9-4.4,8.3c-5.2,5.7-11.4,9.3-19.1,10.4c-4.7,0.6-9.4,0.6-14.1,0c-5.5-0.6-10.8-1.8-16.1-3.1
			c-0.2-0.1-0.5-0.1-0.8-0.2c-0.1,0.7-0.2,1.3-0.2,1.9c-0.2,4.4-0.3,8.9-0.5,13.3c-0.2,5.6-0.2,11.3,0.1,16.9
			c0.3,5.9,0.8,11.8,2.3,17.5c0.6,2.3,1.7,4.4,3.3,6.2c1,1.2,2.2,2,3.7,2.5c1.3,0.5,2.7,0.5,3.9-0.2c1-0.5,1.9-1.2,2.8-1.9
			c0.5-0.4,1-1,1.4-1.5c3.5-4.5,6.4-9.2,8.3-14.6c1-3,2.2-6,3.4-9c0.5-1.3,1.1-2.5,1.8-3.6c0.5-0.8,1.1-1.5,1.8-2
			c1.6-1.2,3.4-0.4,3.9,1.5c0.3,1,0.2,2.1-0.1,3.1c-0.4,1.5-0.9,2.9-1.5,4.3c-3.1,7.2-6.7,14.1-11.2,20.5c-2.1,3-4.3,5.8-7.3,8
			c-1.8,1.3-3.7,2.2-5.8,2.9c-3.2,1-6.3,0.5-9.3-1.2c-3-1.7-5.2-4.1-6.9-7c-1.8-2.9-3-6-4.1-9.3c-1.6-4.9-2.6-9.9-3.3-15
			c-0.1-0.5-0.1-1-0.2-1.6C297.5,291.6,297.4,291.6,297.4,291.6z M263.7,287.4c2.3,0.1,5-0.7,6.9-1.5c1.4-0.6,2.6-1.5,3.5-2.7
			c1.2-1.5,2-3.2,2.5-5c1-3.8-0.7-7.2-4.3-8.7c-2.5-1.1-4.4-0.5-6,1.6c-1,1.3-1.6,2.9-2,4.5c-0.6,2.7-0.8,5.5-0.8,8.3
			C263.5,284.9,263.6,286.1,263.7,287.4z"/>
	</g>
	<g>
		<path class="st114" d="M223.2,108.7c0.6-2,1.2-4,1.7-6.1c1.1-5,2.6-10,4.1-14.9c1.8-5.9,3.6-11.8,5.3-17.7
			c0.2-0.5,0.4-1.1,0.6-1.6c0.6-1.7,1.8-2.8,3.6-3.1c2.5-0.4,5-0.6,7.4-0.1c0.8,0.2,1.6,0.4,2.3,0.8c1.5,0.8,1.7,2.1,0.5,3.4
			c-0.1,0.2-0.3,0.3-0.5,0.4c-1.3,0.9-1.9,2.3-1.9,3.8c-0.1,2.2-0.1,4.4-0.1,6.6c0,1.6,0.1,3.2,0.1,4.8c0.1,5,0.2,10,0.5,15
			c0.3,6,0.8,12.1,1.2,18.1c0.3,4.7,0.5,9.3,0.7,14c0.3,6.8,0.5,13.7,0.8,20.5c0.1,4.1,0.2,8.3,0.3,12.4c0.2,10.6,0.4,21.2,0.6,31.7
			c0.1,3.5,0,7,0.1,10.5c0.1,2.6,0.4,5.3,1.2,7.8c0.4,1.1,0.9,2.1,1.4,3.2c0.4,0.9,0.8,1.7,1.1,2.7c0.4,1.5-0.3,2.6-1.7,2.9
			c-1.2,0.3-2.4,0.4-3.6,0.4c-3.3,0.1-6.6,0.2-9.8,0.2c-1.1,0-2.3-0.2-3.4-0.4c-0.5-0.1-1-0.4-1.4-0.7c-1.6-1.1-1.7-2.9-0.3-4.2
			c2-1.8,2.8-4.1,2.7-6.7c-0.2-5.3-0.4-10.5-0.7-15.8c-0.3-5.6-0.6-11.2-0.8-16.8c-0.2-5.2-0.4-10.5-0.6-15.7
			c-0.2-4.4-0.4-8.8-0.6-13.2c-0.1-3.2-0.2-6.4-0.2-9.6c-0.2-10-0.4-20.1-0.6-30.1c0-2.3,0-4.6-0.1-6.8c0-0.3,0-0.6-0.2-0.9
			c-0.1,0.4-0.3,0.8-0.4,1.2c-1.9,5.7-3.9,11.3-6.6,16.7c-0.3,0.5-0.5,1-0.9,1.5c-1.3,1.6-3.5,1.7-4.8,0c-0.6-0.7-1.1-1.6-1.5-2.4
			c-3-5.2-6.1-10.4-9.1-15.6c-0.1-0.1-0.2-0.3-0.4-0.6c-0.1,0.4-0.1,0.6-0.1,0.8c0,9.9,0,19.9,0.1,29.8c0.1,6.7,0.3,13.3,0.5,20
			c0.1,2.6,0.1,5.2,0.1,7.8c0.1,10.9,0.2,21.7,0.2,32.6c0,6,0.1,12,0.1,18.1c0,1.3,0.2,2.6,0.6,3.9c0.3,0.9,0.8,1.5,1.7,1.7
			c0.1,0,0.2,0.1,0.3,0.1c1.1,0.5,1.7,1.4,1.6,2.5c-0.2,1.1-1,1.9-2.2,2c-2.3,0.3-4.6,0.3-6.9,0c-1.1-0.2-2.2-0.2-3.3-0.4
			c-0.6-0.1-1.3-0.2-1.8-0.5c-1.7-0.9-1.7-3-0.2-4c0.1-0.1,0.2-0.2,0.4-0.2c1.5-0.5,2-1.7,2.2-3c0.4-2.9,0.7-5.8,0.6-8.7
			c-0.1-1.8-0.1-3.6-0.1-5.5c-0.2-11-0.4-22.1-0.6-33.1c-0.1-6.5-0.2-13-0.3-19.5c-0.2-11.5-0.4-23.1-0.5-34.6
			c-0.1-5.8-0.1-11.7-0.1-17.5c0-4.3,0-8.6,0.1-12.9c0-1.6,0.2-3.2,0.1-4.8c-0.1-1.5-0.3-3.1-0.6-4.5c-0.4-1.7-1.3-3-2.9-3.9
			c-0.6-0.3-1.1-0.7-1.7-1.2c-0.3-0.3-0.6-0.6-0.9-0.9c-0.7-1-0.4-2,0.6-2.7c0.9-0.6,1.9-0.7,2.9-0.6c2.3,0.2,4.6,0.4,6.9,0.6
			c0.6,0.1,1.2,0.2,1.8,0.3c1.4,0.3,2.4,1.1,3,2.4c0.6,1.2,1.1,2.5,1.5,3.8c1.5,5.3,3,10.6,4.4,16c1.7,6.5,3.9,12.8,6,19.1
			c0.2,0.6,0.4,1.1,0.6,1.7C223,108.7,223.1,108.7,223.2,108.7z"/>
		<path class="st114" d="M169.5,186.9c0.8,1.3,1.5,2.5,2.1,3.7c3.4,5.9,6.7,11.8,10.1,17.6c1.3,2.2,2.8,4.4,4.3,6.5
			c0.6,0.9,1.4,1.5,2.3,2c0.5,0.3,1,0.4,1.5,0c0.5-0.3,1.1-0.7,1.5-1.2c0.6-0.7,1.1-1.5,1.6-2.3c0.5-0.8,1.1-1.1,1.7-0.9
			c0.8,0.2,1.3,0.9,1.1,1.8c-0.1,0.7-0.3,1.3-0.6,1.9c-1.6,3.5-4.4,5.3-8.1,5.9c-3.5,0.6-6.5-0.7-9.3-2.6c-1.7-1.2-3.1-2.8-4.2-4.5
			c-2.2-3.2-4.3-6.6-6-10.1c-0.1-0.3-0.3-0.5-0.5-1c-0.1,0.4-0.1,0.6-0.1,0.8c0,3.5,0.1,6.9,0.6,10.3c0.2,1.5,0.9,2.6,2.2,3.4
			c0.5,0.3,1,0.7,1.4,1.2c0.8,1,0.6,2.1-0.4,2.9c-0.9,0.6-2,0.9-3,1c-4.3,0.4-8.5,0.7-12.8,0.2c-0.9-0.1-1.8-0.3-2.6-0.8
			c-1.7-1.1-1.8-3-0.2-4.2c0.7-0.5,1-1.1,1.1-1.9c0.4-1.6,0.5-3.2,0.4-4.8c-0.1-3.6-0.3-7.1-0.4-10.7c-0.2-6.4-0.3-12.8-0.5-19.1
			c-0.1-5.4-0.3-10.9-0.4-16.3c-0.1-5.5-0.3-11-0.4-16.5c-0.2-7.8-0.4-15.6-0.6-23.4c-0.1-5.2-0.2-10.3-0.3-15.5
			C151,103,151,95.4,151,87.8c0-0.9-0.3-1.9-0.6-2.8c-0.4-1.4-1.5-2.1-2.8-2.5c-0.3-0.1-0.7-0.1-1-0.3c-1.7-0.7-1.9-2.9-0.4-3.9
			c0.5-0.4,1.2-0.6,1.9-0.7c1.5-0.3,3.1-0.4,4.7-0.6c5.6-0.4,11.3-0.3,16.8,1.1c8,2,14.1,6.6,18.1,13.7c2.6,4.6,4.3,9.5,5.3,14.6
			c1,5,1.6,10,2,15c0.3,3.8,0.6,7.5,0.8,11.3c0.2,5.1-0.2,10.1-0.7,15.1c-0.4,3.6-0.7,7.2-1.1,10.7c-0.6,4.9-1.8,9.6-4,14
			c-1.3,2.5-3,4.6-5.1,6.4c-2.3,2-4.8,3.7-7.5,5.1c-1.7,0.9-3.6,1.6-5.5,2.1C170.9,186.4,170.2,186.6,169.5,186.9z M166.5,179.9
			c0.7-0.2,1.3-0.3,1.9-0.5c3.6-1.6,6.6-3.9,8.5-7.3c1.5-2.6,2.3-5.4,2.7-8.4c0.5-4.1,0.5-8.2,0.5-12.3c0-7.3-0.1-14.5-0.5-21.8
			c-0.2-3.3-0.4-6.6-0.6-9.9c-0.2-3.4-0.3-6.8-0.7-10.2c-0.5-4-1.2-8-2.6-11.9c-1.1-3.2-2.6-6.3-4.8-9c-1.5-1.8-3.2-3.3-5.4-4
			c-0.8-0.3-1.7-0.5-2.7-0.3c0,0.2,0,0.4,0,0.6c0.2,2.5,0.5,5,0.6,7.6c0.3,6.4,0.6,12.7,0.8,19.1c0.3,9.6,0.6,19.2,0.9,28.8
			c0.2,5.8,0.3,11.5,0.5,17.3c0.2,6,0.4,12,0.6,17.9C166.4,176.9,166.5,178.3,166.5,179.9z"/>
		<path class="st114" d="M312.7,186c0.9,1.5,1.9,2.9,2.8,4.4c2.7,4.7,5.4,9.5,8.1,14.2c1.3,2.3,2.6,4.6,4,6.8
			c1.1,1.8,2.4,3.5,3.7,5.3c0.7-0.3,1.2-0.8,1.7-1.4c0.4-0.4,0.7-0.9,1.1-1.3c0.7-0.6,1.4-0.7,2-0.3c0.6,0.4,0.9,1.2,0.7,2
			c-0.1,0.4-0.3,0.9-0.6,1.2c-0.7,0.9-1.4,1.8-2.1,2.7c-2.8,3.1-7.3,2.4-9.4,0.7c-0.9-0.8-1.7-1.7-2.5-2.6c-3-3.8-5.3-8.1-7.7-12.3
			c-0.7-1.2-1.4-2.5-2.3-3.7c0,0.6-0.1,1.1,0,1.7c0.1,2.4,0.3,4.8,0.4,7.3c0.1,1.9,0.5,3.7,1.1,5.4c0.2,0.6,0.6,1.2,0.9,1.8
			c0.3,0.5,0.7,1,1.4,1.3c0.2,0.1,0.4,0.2,0.6,0.4c1.1,0.9,1.2,2.5,0,3.4c-0.5,0.4-1.2,0.7-1.9,0.9c-0.6,0.2-1.2,0.2-1.8,0.2
			c-3.5,0.1-7,0.2-10.5,0.2c-1,0-2.1-0.1-3.1-0.4c-0.6-0.1-1.2-0.5-1.6-0.9c-1.1-1.1-0.9-3.1,0.5-3.7c1.7-0.7,2.1-2.1,2.3-3.7
			c0.2-1.3,0.2-2.6,0.2-3.8c-0.1-4-0.2-7.9-0.4-11.9c-0.2-6.3-0.4-12.7-0.6-19c-0.3-7.9-0.6-15.7-0.9-23.6
			c-0.2-6.6-0.4-13.1-0.7-19.7c-0.3-7.2-0.5-14.5-0.3-21.7c0.1-3.7,0.2-7.5,0.3-11.2c0-1.2-0.1-2.4-0.2-3.6c0-0.5-0.2-0.9-0.4-1.3
			c-0.2-0.5-0.5-0.8-1-0.9c-0.3-0.1-0.7-0.2-1-0.4c-1.3-0.7-1.3-2.4,0-3.1c0.5-0.3,1.2-0.4,1.8-0.5c2.7-0.2,5.3,0.4,7.9,1.2
			c5.6,1.7,9.8,5.3,13.7,9.5c3.1,3.4,5,7.4,6.3,11.8c1.5,4.8,2.3,9.7,2.8,14.7c0.7,6.8,1,13.7,0.8,20.6c-0.1,4.7-0.3,9.4-1.1,14
			c-0.5,3-1.4,5.8-2.6,8.6c-2.3,5.1-6.1,8.6-11.5,10.3c-0.4,0.1-0.7,0.3-1.1,0.4C312.7,185.9,312.7,186,312.7,186z M311,105.1
			c0.1,2.6,0.1,5.1,0.2,7.5c0.2,5.7,0.4,11.3,0.5,17c0.1,5.9,0.2,11.9,0.3,17.8c0.1,6.4,0.3,12.9,0.4,19.3c0.1,4.2,0.1,8.5,0.1,12.7
			c0,0.3,0,0.7,0.1,1c0.2,0,0.3,0,0.4-0.1c1.9-0.7,3.4-1.9,4.5-3.6c1.5-2.5,2.4-5.2,2.4-8.1c0-3.9,0.1-7.8-0.1-11.8
			c-0.3-6.4-0.7-12.8-1.1-19.2c-0.4-5.5-0.7-11-1.1-16.5c-0.2-2.3-0.6-4.7-1.1-7c-0.5-2.5-1.4-4.8-3-6.9
			C312.8,106.6,312,105.8,311,105.1z"/>
		<path class="st114" d="M277,89.6c-0.5,2.3-0.9,93.7-0.4,96.9c0.8,0.1,1.6,0.1,2.4,0.2c1.5,0.1,2.9,0.2,4.4,0.3
			c2.1,0.2,3.7-0.8,5-2.4c0.2-0.3,0.4-0.5,0.6-0.8c1.1-1.3,3-1.2,4,0.2c0.5,0.7,0.7,1.6,0.7,2.4c-0.1,1.9-0.2,3.8-0.3,5.8
			c-0.1,0.8-0.2,1.6-0.3,2.4c-0.2,1.2-1.1,2-2.2,2c-1.1,0-2-0.8-2.2-2c-0.1-0.4-0.1-0.8-0.1-1.2c-0.6-0.4-1.4-0.5-2.1-0.6
			c-2.3-0.4-4.7-0.2-7-0.1c-0.8,0.1-1.7,0.1-2.7,0.1c0.2,8.2,0.5,16.3,0.7,24.5c1.3,0,2.6,0,3.8,0c1.3,0.1,2.4-0.3,3.4-1
			c0.7-0.5,1.3-1.1,1.9-1.7c0.6-0.7,1.1-1.4,1.6-2.1c0.2-0.3,0.5-0.6,0.7-0.9c1.1-1.1,2.7-1.2,3.7,0c0.5,0.6,0.9,1.3,1.1,2
			c0.8,2.5,1,5.2,0.6,7.8c-0.2,1.5-1.2,2.4-2.6,2.8c-0.9,0.3-1.9,0.5-2.8,0.5c-4.6,0.1-9.3,0.1-13.9,0.1c-4.1,0-8.3-0.1-12.4-0.2
			c-0.8,0-1.6,0-2.3-0.1c-0.4,0-0.8-0.1-1.1-0.2c-1.1-0.4-1.9-1.4-1.9-2.6c0-1.2,0.6-2.1,1.7-2.6c0.2-0.1,0.3-0.1,0.5-0.2
			c1.3-0.6,2.1-1.6,2.3-3c0.1-0.9,0.2-1.8,0.1-2.7c-0.3-16.4-0.7-32.8-1-49.3c-0.1-7.8,0-15.7,0.1-23.5c0.1-6.4,0.1-12.8,0.4-19.2
			c0.3-7.1,0.4-14.1,0.1-21.2c-0.1-2.6-0.3-5.3-0.8-7.9c-0.2-1.1-0.7-1.8-1.7-2.3c-0.7-0.3-1.4-0.7-2.1-1.1
			c-0.6-0.4-1.2-0.8-1.6-1.3c-1.1-1.4-0.5-3.2,1.3-3.7c0.2-0.1,0.4-0.1,0.6-0.1c5.4-0.5,10.8-1.2,16.2-1.3c2,0,4.1,0.1,6.1,0.2
			c0.7,0,1.4,0,2.1,0c1.5,0,2.9,0,4.4,0.1c2,0.2,3.4,1.4,3.9,3.4c0.6,2.4,0.7,4.8,0.3,7.2c-0.2,1.4-1.3,2.2-2.5,2.2
			c-1.3,0-2.3-0.9-2.5-2.3c-0.1-0.5-0.2-1-0.2-1.5c0-0.7-0.4-1.2-1-1.5c-0.2-0.1-0.3-0.2-0.5-0.2C281.1,89.5,279,89.5,277,89.6z"/>
		<path class="st114" d="M129,217c-0.2-1.2-0.4-2.5-0.7-3.8c-1.2-5-2.3-10.1-3.5-15.1c-0.1-0.2-0.1-0.5-0.2-0.8
			c-6.3,0-12.7,0-19.2,0c-0.9,6.6-1.6,13.3-1.9,20c0.4,0.3,0.8,0.5,1.1,0.7c0.7,0.5,1,1.2,0.8,2.1c-0.2,0.8-0.8,1.2-1.7,1.4
			c-2.9,0.4-5.8,0.3-8.7,0.3c-0.4,0-0.8-0.1-1.1-0.3c-0.7-0.3-1.1-0.9-1.1-1.7c0-0.8,0.3-1.4,1-1.7c2-1,2.8-2.9,3.2-4.9
			c0.5-2.9,0.7-5.9,1.1-8.8c0.5-4.3,1.1-8.7,1.6-13c0.5-4.1,0.9-8.2,1.4-12.3c0.6-4.9,1.1-9.8,1.6-14.6c0.4-3.5,0.7-7,1.1-10.5
			c0.6-4.7,1.1-9.4,1.8-14.1c0.6-4.3,1.3-8.5,2-12.8c0.9-5.3,1.9-10.5,2.9-15.7c0.3-1.6,0.6-3.2,1-4.8c0.5-1.9,1.1-2.4,3-2.6
			c0.4,0,0.8-0.1,1.2-0.2c1.4-0.2,2.4,0.5,3,1.8c1.3,3.3,1.9,6.7,2.7,10.1c2,8.7,3.9,17.4,5.9,26c3.2,13.5,6.6,27,9.8,40.6
			c1.4,6.1,2.7,12.2,4,18.3c0.8,3.6,1.5,7.2,2.4,10.7c0.4,1.4,1,2.8,1.5,4.2c0.4,0.9,1.1,1.6,2,2c0.6,0.3,1.3,0.6,1.9,1.1
			c0.8,0.6,1.2,1.3,1,2.3c-0.1,0.9-0.7,1.5-1.5,1.7c-1.5,0.3-2.9,0.7-4.4,0.8c-3.4,0.2-6.8,0.2-10.1,0.3c-1.5,0-2.9-0.1-4.4-0.2
			c-0.3,0-0.6-0.1-0.9-0.2c-1.9-0.5-2.6-2.4-1.4-4C127.3,218.4,128.1,217.9,129,217z M123.6,192.6c-4.2-17.9-7.3-35.9-10.8-53.8
			c-1.2,8.9-2.2,17.9-3.4,26.8c-1.2,8.9-2.4,17.8-3.3,26.8C111.9,192.5,117.7,192.6,123.6,192.6z"/>
		<path class="st114" d="M81.3,197.6c0,0.2-0.1,0.3-0.1,0.5c0,4.2,0,8.4,0.1,12.6c0,1.4,0.4,2.9,0.6,4.3c0.2,1,0.6,1.8,1.2,2.6
			c0.2,0.3,0.5,0.6,0.7,0.9c0.8,1.1,0.5,2.5-0.8,3c-0.7,0.3-1.6,0.4-2.4,0.4c-1.2,0-2.4-0.2-3.6-0.2c-2.8-0.2-5.5-0.3-8.3-0.4
			c-0.5,0-1-0.1-1.5-0.2c-0.8-0.2-1.3-0.8-1.5-1.7c-0.1-0.9,0.2-1.5,0.9-2c0.2-0.1,0.4-0.3,0.6-0.4c0.8-0.4,1.4-1.1,1.6-1.9
			c0.3-1,0.5-1.9,0.5-2.9c0.1-3.5,0-6.9,0-10.4c0-3.8,0-7.6,0.1-11.4c0-3.6,0.1-7.3,0.2-10.9c0.2-4.6,0.5-9.2,0.7-13.8
			c0.1-1.7,0.1-3.5-0.4-5.2c-0.3-1-0.8-1.8-1.8-2.4c-0.5-0.3-1-0.8-1.3-1.3c-0.7-1.2-0.3-2.5,1-3c0.6-0.3,1.4-0.4,2.1-0.4
			c7.1-0.1,14.2-0.1,21.4-0.1c0.7,0,1.5,0,2.2,0.1c2,0.1,3.3,1.3,3.5,3.3c0.1,1.7-0.1,3.4-0.4,5.1c-0.2,0.9-0.7,1.4-1.5,1.5
			c-0.8,0.1-1.6-0.5-1.9-1.3c-0.2-0.5-0.3-1-0.4-1.5c-0.3-1.4-1.2-2.1-2.6-2.1c-2.5-0.1-5-0.1-7.6-0.2c-0.7,11.6-0.9,23.1-1.4,34.6
			c1.4,0.2,2.8,0.3,4.1,0c0.6-0.2,1-0.6,1.3-1.2c0.2-0.3,0.3-0.7,0.5-1.1c0.3-0.6,0.8-1,1.5-1c0.7,0,1.3,0.5,1.5,1.2
			c0.1,0.4,0.2,0.9,0.2,1.4c-0.1,2.2-0.2,4.5-0.3,6.7c0,0.6-0.3,1-0.8,1.3c-0.8,0.6-2,0.2-2.4-0.7c-0.1-0.2-0.1-0.4-0.1-0.6
			c-0.3-1.3-0.4-1.4-1.7-1.3C83.8,197.3,82.6,197.5,81.3,197.6z"/>
		<path class="st114" d="M344.1,219.7c-0.2,0.7-0.4,1.2-0.5,1.7c-0.4,1.3-1.2,1.9-2.1,1.8c-1-0.1-1.7-0.9-1.7-2.3
			c0-3.1,0.1-6.1,0.1-9.2c0-1.5,1.8-2.5,3.3-1.7c0.6,0.3,1.1,0.8,1.6,1.3c0.8,0.9,1.6,1.8,2.4,2.7c1,1.1,2.3,1.5,3.7,1.6
			c0.8,0,1.5-0.4,2.2-0.8c2.2-1.3,3-3.2,2.7-5.6c-0.3-2.3-1-4.5-1.9-6.6c-1.5-3.7-3.6-7-6-10.2c-1.8-2.3-3.6-4.6-5.4-6.9
			c-2.2-2.8-4.1-5.7-5.8-8.8c-1.7-3.1-3-6.4-3.5-9.9c-0.2-1.8-0.2-3.6,0.2-5.4c0.7-3.1,2.6-5.4,5.2-7.1c3.9-2.5,7.9-2.2,11.9-0.3
			c0.8,0.4,1.4,0.5,2.3,0.3c2.4-0.5,3.4,0.1,3.7,2.6c0.3,2.1,0.6,4.2-0.1,6.3c-0.1,0.2-0.1,0.4-0.2,0.6c-0.7,1.5-2.3,1.8-3.4,0.5
			c-0.4-0.5-0.7-1.1-1-1.6c-0.5-0.8-0.9-1.7-1.4-2.5c-0.7-1.1-1.6-1.9-2.8-2.4c-2-1-3.9,0.3-4.4,1.9c-0.4,1.3-0.5,2.7-0.2,4
			c0.6,3.4,2,6.4,4.1,9.2c4.1,5.5,7.8,11.2,11.1,17.1c2.5,4.5,4.4,9.3,5.5,14.3c0.7,3,1,6,0.3,9c-0.7,3.4-2.4,6.3-5.3,8.3
			c-3.5,2.4-8.3,2.2-11.9-0.2c-0.5-0.3-1-0.7-1.5-1.1C345,220.2,344.6,220,344.1,219.7z"/>
		<path class="st114" d="M340.4,139.8c0,1.6-0.4,3.5-1.4,5.3c-0.3,0.5-0.5,1-0.8,1.5c-0.3,0.5-0.7,0.9-1.1,1.3
			c-0.6,0.5-1.3,0.5-2,0.2c-0.7-0.3-1-0.9-1-1.7c0-0.6,0.1-1.1,0.1-1.7c0-1.3-0.1-2.6-0.2-3.8c0-1.3-0.2-2.6,0-3.8
			c0.3-1.7,1.6-2.7,3.2-2.4c0.9,0.1,1.6,0.7,2.1,1.5C340,137,340.3,138.1,340.4,139.8z"/>
	</g>
</g>
</svg>
